<?xml version="1.0" standalone="no"?>
<!DOCTYPE svg PUBLIC "-//W3C//DTD SVG 20010904//EN"
 "http://www.w3.org/TR/2001/REC-SVG-20010904/DTD/svg10.dtd">
<svg version="1.0" xmlns="http://www.w3.org/2000/svg"
 width="512.000000pt" height="735.000000pt" viewBox="0 0 512.000000 735.000000"
 preserveAspectRatio="xMidYMid meet">

<g transform="translate(0.000000,735.000000) scale(0.100000,-0.100000)"
fill="#000000" stroke="none">
<path d="M2355 7344 c-16 -2 -73 -9 -125 -15 -336 -38 -698 -165 -1006 -354
-671 -411 -1110 -1094 -1209 -1884 -24 -187 -16 -586 14 -785 40 -252 113
-499 218 -732 157 -349 363 -655 872 -1294 551 -690 847 -1137 1007 -1516 25
-60 84 -221 130 -359 87 -257 111 -310 161 -357 39 -37 73 -48 154 -48 152 0
193 51 299 375 85 260 128 371 209 540 173 359 397 684 965 1400 465 586 639
841 796 1168 142 295 224 570 265 890 18 139 21 613 5 734 -75 561 -316 1061
-705 1462 -401 413 -905 670 -1487 757 -97 14 -496 27 -563 18z m369 -1599
c358 -63 646 -308 763 -650 130 -381 9 -802 -305 -1058 -242 -198 -551 -270
-850 -197 -343 83 -623 357 -714 698 -26 100 -35 304 -18 410 29 184 123 372
250 501 238 244 557 351 874 296z"/>
</g>
</svg>
